<svg preserveAspectRatio="xMidYMid meet" data-bbox="-0.1 -0.031 129.7 70.531" viewBox="0 0 129.6 70.4" xmlns="http://www.w3.org/2000/svg" data-type="ugc" role="presentation" aria-hidden="true" aria-label="">
    <g opacity=".64">
        <path d="M65 9.8c.1 0 .2.1.5.3.3.2.8.5 1.5.8 1.3.6 3.2 1.5 5.7 2.3 2.5.8 5.4 1.6 8.8 2.3 3.3.7 7.1 1.3 11 1.9 6.6 1.1 12.6 2.2 17.3 3.1.2 0 .4 0 .5.1.7.1 1.4.2 2.3.4.6 0 1.2 0 1.8.1 1.6.1 3 .1 4.2.2h.1c.9 0 1.9 0 3 .1.3 0 .6-.1.9-.1.2 0 .3 0 .5-.1.6-.1 1.1-.2 1.5-.3.2-.2.5-.5.9-.6.8-.2 1.5 0 1.6.4l2.5-.1-2.2 1.1c-.1 0-.2.1-.2.1-.2.1-.4.2-.7.3v.1c0 .1-.1.1-.1.2 0 0-.1.1-.2.1-.1.1-.2.1-.4.1-.3.4-1.9 1-4 1.1-.6 0-1.2 0-1.8-.1-.7.2-1.5.3-2.3.3-1.9.1-4-.4-6-.9-.1 0-.2 0-.3-.1h-.1c-.5-.1-1-.2-1.5-.4-2.7-.6-5.2-1.1-7.2-1.5-4.8-.1-10.4.2-16.5.8-2.8.3-5.7.7-8.6 1.2-1.1.4-2.3.8-3.6 1.5-.9.5-1.9 1.1-2.8 1.8-.9.7-1.7 1.6-2.5 2.5-1.6 1.9-2.8 3.9-4 5.8-1.1 1.9-2.1 3.6-3 5-.9 1.4-1.7 2.5-2.3 3.2-.5.6-.9 1-.9 1.1.1-.1.3-.5.8-1.2.5-.8 1.2-1.9 1.9-3.4.8-1.5 1.6-3.2 2.6-5.2s2.2-4.1 3.9-6c1.4-1.6 3-3 4.6-3.9-2.6.5-5.3 1.2-7.9 1.9-3.4.9-6.6 1.9-9.7 3-.4.2-.8.4-1.3.7-1.7.9-3.6 2.1-5.7 3.6s-4.4 3.1-6.8 4.8c-2.5 1.7-5 3-7.4 4-2.4 1-4.7 1.6-6.6 1.9-1.4.2-2.7.2-3.6.1-2.6 1.5-4.8 2.7-6.5 3.6-2.5 1.4-4 2.1-4 2-.1-.1 1.2-1 3.7-2.6 1.4-.9 3.1-2 5.1-3.2-.2 0-.4-.1-.5-.1-.3 0-.4-.1-.4-.1h1.1c1.5-1 3.3-2 5.2-3.1 4.5-2.6 9.9-5.7 16.1-8.6 6.2-2.9 13.3-5.7 21-7.8 7.7-2.1 15.2-3.2 22.1-3.8 5.2-.4 10.1-.5 14.4-.4-2.5-.4-5.2-.9-8-1.4-3.9-.7-7.6-1.4-11-2.2-3.4-.8-6.3-1.8-8.8-2.7-2.4-1-4.3-2-5.5-2.7-.6-.4-1.1-.7-1.4-.9l-.8-.4zM47.9 31.4c-1.6.6-3.1 1.3-4.6 2-6.2 2.8-11.6 5.7-16.2 8.2-1.3.7-2.5 1.4-3.6 2 .8-.1 1.8-.2 2.9-.4 1.9-.4 4-1.2 6.3-2.2 2.3-1.1 4.7-2.5 7.1-4.1 2.4-1.6 4.7-3.3 6.9-4.7.5-.3.8-.6 1.2-.8z" fill="#7e8494"></path>
        <path d="M19 48.5c-.3.2-.7.5-1 .7-2.4 1.8-5.1 4.7-7.7 8 .8-.8 1.7-1.5 2.6-2.1 1.6-1.2 2.9-1.5 4.8-2.6-.7 1.8-1.2 3.9-1.9 6 1-2.1 2.1-3.9 2.3-4.1.1-.1.2-.1.3-.1 0 0 .6-1.2 1.8-2.1.6-.4 1.4-.8 2.2-1.1-2.6 2.8-4.5 8-5.4 11 1.4-2.2 2.9-4.7 3.1-4.8.2-.1 1.8-2.7 2.8-3.5 1.1-.8 2.4-1.3 3.5-2.2.2-.2.4-.3.6-.5-1.6 3.1-4.1 6.4-6 8.7 3.9-3 8.2-8.1 10.2-12-.8 3.3-3 8.3-6.2 12.2 5.8-5.2 7.3-10.2 8.5-14.3.1.6 0 1.1 0 1.5-.8 3.7-2.9 10.5-7.8 15.1.9-.4 1.7-.9 2.5-1.5 3.3-2.4 6.2-7.9 7.8-12.9.2-.7.4-1.5.6-2.2 0-2 0-4.2.1-6.6-.8-.3-1.5-.6-2.3-.9-2.5.7-5.2 2-8.7 4.6-3 2.3-6.6 5.7-6.7 5.7z" fill="#cdd3e3"></path>
        <path d="M12.9 55.2c-.9.7-1.7 1.4-2.6 2.1-2.9 3.7-5.6 8-7.5 11.6-.2.5-.4 1.1-.6 1.6.2-.1.4-.2.6-.4 1.2-2.2 4.8-5.7 5.1-5.9.2-.2 1.2-.8 2-1.1-.9.8-1.7 1.9-2.4 3 .6-.4 1.3-.7 1.9-1.2.8-.6 1.4-1.4 2.1-1.9.2-.2.5-.3.8-.3-.6.7-1.2 1.7-1.8 2.6 1.4-.7 3-1.3 3.3-1.4.1-.1.3-.1.4-.1-.1.1-.2.2-.3.4l-.2.2-.1.1c-.1.1-1.3 1.5-2 2.5 1-.2 2-.4 2.9-.5.6-.4 1.2-1.5 1.2-1.6.1-.1.2-.1.3-.2 0 0 .2-.9.7-2.3.9-3 2.8-8.2 5.4-11-.7.3-1.6.7-2.2 1.1-1.2.9-1.8 2.1-1.8 2.1-.1.1-.2.1-.3.1-.2.2-1.3 1.9-2.3 4.1.7-2.1 1.2-4.2 1.9-6-1.6.9-2.9 1.2-4.5 2.4z" fill="#a7b4ce"></path>
        <path d="M9.9 63c-.8.4-1.8 1-2 1.1-.3.3-3.9 3.7-5 5.9 2.8-1.7 5.9-2.7 8.8-3.3.7-.9 1.9-2.4 2-2.5l.1-.1c.1 0 .2-.1.2-.1.1-.1.2-.2.3-.4-.2 0-.3.1-.4.1-.3.2-1.9.8-3.3 1.4.6-.9 1.2-1.9 1.8-2.6-.3.1-.7.2-.8.3-.8.5-1.3 1.4-2.1 1.9-.6.4-1.3.8-1.9 1.2.6-1 1.4-2.1 2.3-2.9z" fill="#8b98b2"></path>
        <path d="M24.9 60.1c3.2-3.9 5.4-8.8 6.2-12.2-2 3.8-6.3 9-10.2 12 1.9-2.3 4.3-5.6 6-8.7-.2.2-.4.3-.6.5-1.1.8-2.4 1.3-3.5 2.2s-2.7 3.3-2.8 3.5c-.2.1-1.7 2.6-3.1 4.8-.4 1.4-.7 2.3-.7 2.3-.1.1-.2.1-.3.2 0 0-.6 1.1-1.2 1.6 4.9-.7 9-.7 10.5-1.9 1.8-1.3 4.1-2.4 6-3.8 4.4-3.2 5.1-7.7 5.3-13.6v-1c-.2.7-.4 1.4-.6 2.2-1.6 5-4.5 10.5-7.8 12.9-.8.6-1.6 1-2.5 1.5 4.9-4.6 7.1-11.4 7.8-15.1.1-.4.1-.9 0-1.5-1.2 4-2.7 8.9-8.5 14.1z" fill="#a7b4ce"></path>
        <path d="M2.9 68.8C6.5 62 12.8 53 18 49.2c.3-.2.7-.5 1-.7 0 0 .7-.7 1.7-1.6-2.7.2-5.3.8-7.4 2.3-3.1 2.3-3.7 6.3-4 7.3.2-4.2 2.3-6.8 4.9-8.8 1.2-.9 2.1-1.5 2.9-2-1.5 0-3 .9-4.7 2.2-.1.1-.2.1-.2.2.6-.7 1.4-1.5 2.4-2.3 1.3-1 3.5-2.1 5.7-2.8-1.6 0-3 .3-4.4.9 1.4-.8 2.8-1.4 4-1.7-.9 0-1.9.1-2.8.2 1.9-.8 5-1.6 8.5-1.8-2.4-.4-5.2-.6-8-.5-.1.1-.2.2-.3.2C7.6 47.6 6.6 59 2.9 68.8z" fill="#7c829c"></path>
        <path d="M29.1 40.6c1.9-1.1 3.5-1.8 5.1-2.2-5.3-1.8-10.8-2.3-16.4 1.7 2.7-.2 5.6.1 8 .5-3.5.2-6.6 1-8.5 1.8.9-.2 1.9-.3 2.8-.2-1.2.3-2.6.9-4 1.7 1.4-.5 2.8-.9 4.4-.9-2.1.7-4.4 1.9-5.7 2.8-1.1.8-1.8 1.5-2.4 2.3.1-.1.2-.1.2-.2 1.7-1.2 3.2-2.1 4.7-2.2-.8.5-1.8 1.1-2.9 2-2.6 1.9-4.8 4.6-4.9 8.8.3-1 .9-5 4-7.3 2-1.5 4.7-2.1 7.4-2.3 1.3-1.2 3.2-2.8 4.8-4 .5-.4 1-.7 1.5-1.1.6-.4 1.3-.8 1.9-1.2z" fill="#686e85"></path>
        <path d="M14.1 27.7c4.2-.2 8.1 1.5 10.2 2.8-3.8-.4-8.3-.2-10-.1 11.1.4 10.6 4.6 15.5 3.4h.1c-.4.3-.9.5-1.4.6-2.6.7-6 .7-9.3-.2 3.7 2 6.9 2.3 9.8 1.5.9-.2 1.9-.5 2.7-.9-1.1.6-2.4 1.2-4.5 1.7-.3.1-1.8.4-2.9.5 2.1.2 4.8.3 7.8-.5 1.7-.4 3.4-1 5.1-1.5-1.7 1-4.4 2.3-6.8 3-1.3.3-2.9.5-4.5.4 2.1.6 4.1.7 6 .2 1.5-.4 12-3.8 15.2-6.7-5.7-.2-15.1-3.4-24.8-5.9-1.1 0-2.2.1-3.1.3-.8.2-1.6.5-2.5.8.2.1-1 .3-2.6.6z" fill="#c3c4d9"></path>
        <path d="M2.9 25c2 1.2 4.1 2.7 6.3 4.2.7-.1 1.6 0 2.3.1-1.3-1.1-4.3-2.7-5.6-3.1 1.1.2 3.7.8 6.5 2-2-1.4-5.1-3.2-7.4-3.7 2.5-.5 4-.2 5 .2-.7-.5-1.4-.9-2.2-1.2-.8-.1-1.5-.2-2.3-.3-2-.1-3.8 0-5.6.2 1 .4 2 1 3 1.6z" fill="#888999"></path>
        <path d="M37.5 24.3h-.2c-.1 0-.9-.5-1-.5l-3.6-2s-.2 0-.4-.1c1.8 1.1 2.5 2 3.1 2.9-2.4.2-5.9-3-9-2.9 1.6.5 3.5 2.4 5.1 3.9-2.3-.6-5.2-.7-7.9-.9 3.8 1.4 8.4 2.4 10.6 4.6 5.2 1.4 9.8 2.6 13.1 2.7.3-.2.5-.5.6-.7-2.4-2.6-8.1-7.9-15.2-11.4 2 1.6 3.6 3.2 4.8 4.4z" fill="#757686"></path>
        <path d="M13.8 17.1c.4.1.8.2 1.3.4 2.2.1 5.4.4 7.8 1-1.3-.9-3-1.6-4.5-2-1.5 0-3 .2-4.6.6.1-.1 0 0 0 0z" fill="#a6a8c3"></path>
        <path d="M13.1 17.2c-.4.1-.8.2-1.2.4 1.8.1 3.9.6 6.7 1.7-.5-.6-2.2-1.4-3.6-1.9-.5-.2-.9-.3-1.3-.4-.1.1-.4.2-.6.2z" fill="#a6a8c3"></path>
        <path d="M15.1 17.4c1.4.5 3.1 1.2 3.6 1.9-2.8-1.1-4.9-1.5-6.7-1.7-.1 0-.1 0-.2.1 1.5 1 2.8 2 3.6 2.8-1.3-1.2-2.8-1.8-4.8-1.3-.2 0-.3.1-.5.1-.2.1-.6.2-1 .3.5.1 1 .2 1.5.4.1 0 .2 0 .3.1.3.1.5.3.8.5-1.1-.4-2.5-.4-3.7-.1-.1 0-.3.1-.4.1.8.2 1.7.5 2.3.9-.6-.2-1.3-.4-2.2-.2-.3.1-1 .2-1.6.3 1.1.8 1.9 1.3 2.6 1.6 8.2.9 17.5 3.8 25.4 6-2.2-2.2-6.8-3.2-10.6-4.6 2.7.2 5.6.3 7.9.9-1.6-1.5-3.5-3.4-5.1-3.9 3.1-.1 6.7 3.1 9 2.9-.6-.8-1.3-1.8-3.1-2.9.2 0 .4.1.4.1l3.6 2c.1 0 .9.5 1 .5h.2c-1.2-1.2-2.8-2.8-4.8-4.4-4.4-2.2-9.3-3.6-14.3-3.5 1.5.5 3.2 1.2 4.5 2-2.3-.5-5.6-.7-7.7-.9z" fill="#848a9a"></path>
        <path d="M0 23.4c2.6-.4 5.6-.3 8.7 0-.7-.3-1.6-.8-2.6-1.6.6 0 1.2-.2 1.6-.3.9-.2 1.6 0 2.2.2-.6-.5-1.5-.8-2.3-.9.1 0 .3-.1.4-.1 1.2-.3 2.7-.3 3.7.1-.3-.2-.5-.4-.8-.5-.1 0-.2-.1-.3-.1-.5-.1-1-.3-1.5-.4.4-.1.8-.3 1-.3.2 0 .3-.1.5-.1 2.1-.5 3.5.1 4.8 1.3-.8-.8-2.1-1.9-3.6-2.8-5 1.5-6.4 3.9-11.8 5.5z" fill="#a6a8c3"></path>
        <path d="M7.9 23.4c-.1-.1-.3-.1-.4-.2-.6 0-1.3-.1-1.9-.1.7.1 1.5.2 2.3.3z" fill="#c3c4d9"></path>
        <path d="M21.3 26.2h1.2c-5.1-1.3-10.3-2.5-15-2.9.1 0 .3.1.4.2 4.5.5 9.7 1.5 13.4 2.7z" fill="#c3c4d9"></path>
        <path d="M10 24.6c-1-.4-2.5-.7-5-.2 2.3.5 5.4 2.3 7.4 3.8-2.8-1.2-5.4-1.8-6.5-2 1.3.4 4.3 2 5.6 3.1-.8-.1-1.6-.2-2.3-.1 5.4 3.7 11.4 7.9 16.8 9.3 1.6 0 3.2-.1 4.5-.4 2.4-.6 5.1-2 6.8-3l-5.1 1.5c-3 .8-5.7.7-7.8.5 1.1-.1 2.6-.4 2.9-.5 2.1-.5 3.4-1.1 4.5-1.7-.8.3-1.8.6-2.7.9-3 .8-6.1.4-9.8-1.5 3.3.9 6.7.8 9.3.2.6-.1 1-.4 1.4-.6h-.1c-4.8 1.2-4.5-2.8-14.9-3.3h-.6.5c2-.1 6-.2 9.5.2-2.2-1.3-6-3-10.2-2.8 1.5-.3 2.8-.5 2.8-.5.8-.2 1.6-.5 2.5-.8.6-.1 1.2-.2 1.9-.3-3.8-1.4-9-2.4-13.5-3 .7.3 1.5.7 2.1 1.2z" fill="#8d93ad"></path>
        <path d="M47.8 42c3.1-2.9 7.2-5.7 11.8-5.7h.5c.8 0 1.6-.1 1.6-.1.5 0 .9.2 1.4.2h.1c-3.5 1.2-5.5-.7-13.2 4.9l-.4.4c2.2-1.5 4.4-2.2 6.6-2.2.7 0 1.4 0 2.1.1-6 1.9-6.6 5.7-9.9 8 2.4-.7 3.9-2 5-2.9-2.9 3.5-4.7 8.4-7.7 10.7 4.5-2.5 7-8.6 10.1-9.4-4 4.9-9 14.1-14.1 18.6 8.1-5.8 14.4-15.9 19.9-24 .9-1.3 1.7-2.6 2.5-3.8.8-1.1 1.5-2.1 2.2-3-.5-.8-1.2-1.3-2.1-1.3-6.9-.2-12.7 4.8-16.4 9.5z" fill="#7d8a9a"></path>
        <path d="M42.2 57.9c-.9 1-1.8 2-2.6 2.8.7-1.3 1.4-3.2 2-5.6-2.1 4.4-6 10.3-9.8 13.7 1.2-.2 2.5-.5 3.7-1 3.2-2.1 4.8-4.7 5.5-6.3-1.1 1.3-2.3 2.6-3.4 3.3 1.7-1.8 3.4-4.4 4.6-6.9z" fill="#a9b6d0"></path>
        <path d="M60.1 36.2h-.5c-4.7 0-8.8 2.8-11.8 5.7-2.9 3.7-4.6 7.2-4.6 7.9 0 .2.1.3.1.6 0 .9-.6 2.6-1.6 4.7-.7 2.4-1.4 4.2-2 5.6.8-.8 1.7-1.8 2.6-2.8-1.2 2.5-2.9 5.1-4.5 6.9 1.1-.8 2.3-2 3.4-3.3-.7 1.6-2.3 4.3-5.5 6.3.9-.3 1.7-.7 2.6-1.1 1.3-.6 2.5-1.4 3.7-2.2 5.1-4.4 10.1-13.7 14.1-18.6-3.1.8-5.6 6.9-10.1 9.4 3-2.4 4.8-7.2 7.7-10.7-1.2 1-2.6 2.2-5 2.9 3.3-2.4 3.9-6.2 9.9-8-.7 0-1.4-.1-2.1-.1-2.2 0-4.4.7-6.6 2.2l.4-.4c7.6-5.6 9.6-3.7 13.2-4.9h-.1c-.5 0-.9-.2-1.4-.2-.3 0-1.1.2-1.9.1z" fill="#8996b0"></path>
        <path d="M66.5 33.8s-.1-.1-.1-.2c-8.2 10.6-18.4 31.9-33.8 35 11.9-.5 28.1-23.5 33.9-34.8z" fill="#6d7383"></path>
        <path d="M59.6 45.1c.1.4.2.9.3 1.4.1-.7.2-1.5.2-2.2-.1.3-.3.6-.5.8z" fill="#6d7383"></path>
        <path d="M64.9 36.8c-.3.5-.6 1.1-1 1.7l-.3.6c-.1.1-.1.2-.2.3-.1.2-.2.3-.3.5-.3.6-.7 1.2-1.1 1.7.1.2.3.4.4.6.9.8 2.3 2.9 2.3 5.9 0 .5 0 1-.1 1.5.4-1 .7-2.4.7-4.1 0-.5-.1-2-.5-3.6.3.6.6 1.3.8 2-.1-1.3-.1-2.7-1-4.3 1.3.5 2 1.6 2.5 3.2-.1-.8-.3-2.2-.7-3.5.5.4 1 1 1.3 1.8 0-.5.1-1.1.1-1.6 0-1.9-.3-4.3-1.3-5.8-.5 1.1-1 2.1-1.6 3.1z" fill="#6d7383"></path>
        <path d="M67.1 42.9c-.5-1.6-1.2-2.8-2.5-3.2.9 1.6.9 3 1 4.3-.2-.7-.5-1.4-.8-2 .4 1.6.5 3.1.5 3.6 0 1.7-.3 3.1-.7 4.1.1-.5.1-1 .1-1.5 0-3-1.4-5.2-2.3-5.9-.1-.2-.3-.4-.4-.6l-1.8 2.7c0 .7-.1 1.4-.2 2.2-.1-.5-.2-1-.3-1.4-.3.4-.6.8-.8 1.2-4.5 6.4-10.1 13-15.6 17.4-.8.7-1.7 1.3-2.5 1.8-1.7 1.1-3.4 2-5.1 2.5 1.3-.2 2.6-.4 3.8-.9-.5.6-1.2 1.2-2.1 1.7 2.4-.7 3.9-1.6 4.8-2.4-.3.6-.7 1.1-1.2 1.6 3-1.3 6.3-3.5 7.2-7-.3 2.2-2.1 4.4-3.6 6.1 2.3-1.2 3.9-2.8 4.9-4.1-.7 1.5-1.8 2.9-2.9 4 2.3-1.2 3.7-1.9 4.6-2.4-.4.7-1 1.3-1.7 2 7-2.6 13.2-6.7 13.3-11.2 0 0 3.4-5.1 4.6-11.6.2-.9.3-1.8.4-2.8-.3-.8-.8-1.4-1.3-1.8.3 1.4.5 2.8.6 3.6z" fill="#7f8c9c"></path>
        <path d="M49.5 63.1c-1.1 1.4-2.7 2.9-4.9 4.1 1.6-1.6 3.3-3.9 3.6-6.1-.9 3.5-4.2 5.7-7.2 7 .4-.5.8-1.1 1.2-1.6-1 .9-2.5 1.8-4.8 2.4.8-.6 1.5-1.2 2.1-1.7-1.2.5-2.5.8-3.8.9-1 .3-2 .5-3 .6-.2.1-.5.1-.7.1l-.1.1c1.4.4 2.9.6 4.4.6h.2c1.1 0 2.4-.1 3.7-.3 1-.1 2-.3 3-.6.9-.2 1.8-.4 2.8-.7 1.2-.3 2.5-.8 3.7-1.2.8-.7 1.3-1.4 1.7-2-.9.5-2.3 1.2-4.6 2.4.9-1.1 2-2.6 2.7-4z" fill="#a9b6d0"></path>
        <path d="M61.5 1.5c.5.2 1 .4 1.5.7 4.7.8 24.8 14 31.8 16.4.3-.2.5-.3.8-.5-3.1-4-9.8-9.6-17.5-13.5.8.6 1.5 1.2 2.1 1.7-2.4-1.5-5.3-2.5-6.8-2.7 1.5.6 2.6 1.7 3.2 2.7-1.2-1.4-2.9-2.1-4.6-2.6.4.4.6 1 .9 1.5-1.7-1.2-4-2.8-4.1-2.8-.5-.1-.9-.2-1.4-.3.3.4.6.9.8 1.2-3-1.5-5.4-1.8-6.7-1.8z" fill="#8996b0"></path>
        <path d="M51.7 1.7c.1.1.2.1.4.2 5.7-1 10 .5 10 .5.1 0 .2-.1.3-.1h.6c-.5-.3-1.1-.5-1.5-.7 1.3 0 3.7.3 6.8 1.8-.3-.4-.6-.9-.9-1.2.4.1.9.2 1.4.3.1 0 2.3 1.6 4.1 2.8-.2-.5-.4-1-.9-1.5 1.7.5 3.4 1.2 4.6 2.6-.6-1.1-1.7-2.2-3.2-2.7 1.5.2 4.4 1.1 6.8 2.6-.6-.5-1.3-1.1-2.1-1.7C71.2 1.1 63.5-1.1 56.9.5c-.7.2-1.4.3-2.1.5-1 .3-2.1.5-3.1.7z" fill="#a9b6d0"></path>
        <path d="M52 1.9c3.8 2.2 8.5 6.8 13.9 11 3.2 2.5 6.7 4.8 10.4 6.3.2.1.3.1.5.2 2 .5 4.2.8 6.4.2.9-.2 1.3-.5 1.8-.8-5.3 1.1-8.2-2-11.3-2.5 3.7-.7 5.3 1.9 8.2 1.2.3-.1.7-.2 1-.3-5.7.8-7.9-3.3-10.6-3.6.3-.2.6-.3.6-.3 1.1-.3 3.2 1 5.3 1.6-2.6-1.3-6.1-3.8-8.9-3.8.3-.1.6-.2.8-.3 1.1-.3 2.2 0 3.5.5-1.6-1.5-3.1-3.5-5.7-4 .9-.1 1.9 0 2.8.7.8.6 1.4 1 2.1 1.3-1.5-1.3-2.4-3.3-4-4.7-1.2-.6-2.2-1.1-3.1-1.5-.3-.1-.5-.1-.6-.2-1.3-.5-2.3-.8-2.8-.7-.1 0-.2.1-.3.1 0 0-4.2-1.4-10-.4z" fill="#7d879d"></path>
        <path d="M72.7 9.3c-.6-.3-1.3-.7-2.1-1.3-.9-.7-1.9-.8-2.8-.7 2.5.5 4.1 2.5 5.7 4-1.2-.4-2.4-.7-3.5-.5-.3.1-.5.2-.8.3 2.8-.1 6.3 2.4 8.9 3.8-2-.6-4.1-1.9-5.3-1.6l-.6.3c2.7.3 4.9 4.4 10.6 3.6-.3.1-.7.2-1 .3-2.8.7-4.4-1.9-8.2-1.2 3.1.5 6 3.6 11.3 2.5-.5.4-.9.6-1.8.8-2.1.5-4.3.3-6.4-.2 4.1 1.6 8.6 2.2 13.4 1.1 1.6-.4 3.1-1 4.5-1.8-5.3-1.8-18.2-9.9-26.1-14C70.3 6 71.2 8 72.7 9.3z" fill="#6d7383"></path>
    </g>
</svg>