<svg preserveAspectRatio="xMidYMid meet" data-bbox="0.01 -0.011 129.58 70.421" viewBox="0 0 129.57 70.41" xmlns="http://www.w3.org/2000/svg" data-type="ugc" role="presentation" aria-hidden="true">
    <g opacity=".64">
        <path d="M64.63 9.77c-.07.04-.24.12-.49.26-.34.17-.83.46-1.49.76-1.3.64-3.22 1.48-5.67 2.29-2.45.8-5.42 1.59-8.78 2.26-3.34.69-7.06 1.28-10.97 1.95-6.55 1.13-12.57 2.23-17.35 3.15h-.03c-.17.02-.36.05-.55.08-.66.1-1.42.23-2.26.36-.59.02-1.21.05-1.85.08-1.55.08-2.99.13-4.21.19h-.1c-.85 0-1.9.02-3.03.11-.28-.04-.58-.08-.89-.11-.17-.02-.33-.03-.49-.06-.62-.12-1.12-.23-1.48-.29-.2-.24-.51-.51-.91-.6-.8-.2-1.51 0-1.55.36v.03l-2.52-.1 2.25 1.1c.08.04.15.07.22.09v.02c.18.11.4.2.65.27 0 .03.02.05.04.07.03.06.07.11.15.17.01.02.1.08.15.12.12.07.24.11.36.14.32.38 1.95 1.02 4.02 1.13.64.03 1.23 0 1.77-.09.72.18 1.49.3 2.34.33 1.94.08 3.98-.39 6.02-.89.11-.03.23-.05.33-.08.05 0 .09-.02.14-.03.53-.11 1.03-.23 1.5-.36h.02c2.7-.62 5.18-1.14 7.24-1.53 4.81-.07 10.38.17 16.46.81 2.77.29 5.65.68 8.6 1.18 1.13.37 2.35.83 3.57 1.47.93.49 1.88 1.07 2.75 1.8.9.7 1.74 1.56 2.53 2.48 1.58 1.87 2.84 3.88 3.96 5.75 1.12 1.86 2.12 3.56 3.03 4.95.9 1.4 1.73 2.46 2.31 3.19.53.62.86.99.94 1.07-.05-.08-.32-.5-.77-1.19-.47-.79-1.16-1.94-1.91-3.4-.76-1.46-1.61-3.22-2.63-5.16-1.02-1.94-2.24-4.06-3.92-6.05-1.37-1.62-2.98-2.97-4.64-3.93 2.61.54 5.27 1.16 7.95 1.88 3.36.9 6.61 1.93 9.72 3.05.41.21.85.44 1.31.69 1.68.92 3.6 2.14 5.7 3.58s4.37 3.09 6.84 4.75c2.48 1.65 4.98 3.04 7.37 4.04 2.4 1 4.68 1.63 6.63 1.87 1.42.18 2.66.2 3.64.14 2.61 1.46 4.8 2.67 6.48 3.61 2.54 1.4 3.97 2.13 4.03 2.03.06-.1-1.25-1.02-3.69-2.6-1.36-.88-3.08-1.97-5.12-3.22.2-.04.38-.08.52-.1.28-.05.42-.08.42-.08l-.44.03c-.17 0-.4.03-.68.04-1.54-.95-3.27-1.99-5.16-3.11-4.48-2.63-9.88-5.65-16.11-8.59-6.22-2.93-13.32-5.72-21.01-7.79-7.7-2.06-15.21-3.24-22.08-3.81-5.22-.42-10.06-.53-14.36-.4 2.54-.42 5.23-.87 8.01-1.36 3.9-.68 7.63-1.35 10.99-2.17 3.36-.79 6.33-1.76 8.76-2.73 2.43-.98 4.3-1.97 5.55-2.73.64-.36 1.1-.69 1.42-.89.25-.16.4-.27.46-.3Zm17.03 21.6c1.57.65 3.1 1.32 4.57 1.99 6.2 2.83 11.64 5.72 16.18 8.21 1.27.71 2.48 1.38 3.61 2.01a23.2 23.2 0 0 1-2.9-.43c-1.87-.39-4.02-1.15-6.29-2.23-2.28-1.08-4.66-2.51-7.1-4.13-2.44-1.63-4.73-3.26-6.89-4.66-.4-.26-.79-.51-1.17-.75Z" fill="#7e8494"></path>
        <path d="M110.57 48.53c.34.25.7.46 1.04.71 2.42 1.78 5.1 4.72 7.65 8.03-.81-.76-1.66-1.47-2.55-2.12-1.6-1.18-2.91-1.45-4.75-2.63.71 1.83 1.23 3.89 1.88 6.01-1.01-2.12-2.08-3.9-2.3-4.07-.08-.06-.18-.07-.27-.14 0 0-.62-1.24-1.77-2.09-.59-.44-1.43-.84-2.16-1.14 2.62 2.79 4.51 7.98 5.45 11.01-1.38-2.19-2.92-4.67-3.09-4.79-.18-.14-1.8-2.68-2.85-3.45-1.1-.81-2.41-1.35-3.52-2.16-.2-.15-.39-.32-.57-.5 1.63 3.11 4.08 6.41 5.96 8.72-3.86-3.03-8.23-8.14-10.22-11.98.76 3.34 2.99 8.31 6.16 12.19-5.79-5.24-7.3-10.16-8.46-14.33-.06.64-.03 1.11.03 1.53.75 3.72 2.92 10.5 7.84 15.08-.88-.42-1.73-.9-2.5-1.46-3.29-2.42-6.16-7.89-7.79-12.89-.24-.73-.45-1.45-.64-2.15-.04-2.03-.03-4.23-.09-6.61.76-.32 1.53-.62 2.3-.89 2.5.69 5.25 2.04 8.7 4.59 2.86 2.11 6.44 5.5 6.49 5.54Z" fill="#cdd3e3"></path>
        <path d="M116.72 55.15c.88.65 1.74 1.36 2.55 2.12 2.87 3.73 5.56 7.95 7.47 11.56.2.53.41 1.06.63 1.58-.21-.13-.42-.25-.63-.37-1.15-2.19-4.78-5.65-5.09-5.88-.24-.18-1.18-.77-2-1.14.92.85 1.7 1.88 2.41 2.99-.64-.39-1.32-.71-1.93-1.15-.76-.56-1.36-1.36-2.11-1.91-.2-.15-.52-.29-.85-.35.62.69 1.25 1.66 1.81 2.59-1.36-.66-3-1.26-3.26-1.42-.13-.08-.29-.11-.45-.14.1.12.2.24.3.37.05.07.12.13.2.18l.11.08c.12.09 1.35 1.54 2.04 2.48-1-.21-1.99-.39-2.95-.53-.59-.44-1.17-1.53-1.19-1.55-.09-.07-.2-.09-.31-.18 0 0-.23-.94-.67-2.35-.94-3.02-2.82-8.21-5.45-11.01.73.3 1.57.7 2.16 1.14 1.16.86 1.77 2.09 1.77 2.09.08.06.18.07.27.14.22.16 1.29 1.94 2.3 4.07-.65-2.13-1.17-4.19-1.88-6.01 1.85 1.18 3.15 1.45 4.75 2.63Z" fill="#a7b4ce"></path>
        <path d="M119.65 63.01c.81.37 1.76.97 2 1.14.32.23 3.94 3.69 5.09 5.88-2.84-1.7-5.89-2.7-8.82-3.32-.69-.94-1.92-2.39-2.04-2.48l-.11-.08c-.07-.05-.14-.11-.2-.18-.1-.13-.2-.24-.3-.37.16.03.32.06.45.14.27.16 1.91.76 3.26 1.42-.56-.93-1.19-1.9-1.81-2.59.33.07.65.2.85.35.75.55 1.34 1.35 2.11 1.91.6.44 1.29.77 1.93 1.15-.71-1.1-1.5-2.14-2.41-2.99Z" fill="#8b98b2"></path>
        <path d="M104.68 60.14c-3.17-3.88-5.4-8.85-6.16-12.19 1.98 3.84 6.35 8.95 10.22 11.98-1.88-2.32-4.34-5.61-5.96-8.72.18.18.37.35.57.5 1.1.81 2.42 1.35 3.52 2.16s2.66 3.31 2.85 3.45c.17.13 1.7 2.6 3.09 4.79.44 1.41.67 2.35.67 2.35.11.08.22.11.31.18.03.02.6 1.12 1.19 1.55-4.86-.73-8.96-.74-10.49-1.87-1.83-1.35-4.06-2.37-6-3.79-4.37-3.22-5.12-7.67-5.29-13.63 0-.32-.02-.65-.02-.98.18.7.4 1.42.64 2.15 1.63 5 4.51 10.47 7.79 12.89.76.56 1.62 1.04 2.5 1.46-4.92-4.58-7.09-11.36-7.84-15.08a6.2 6.2 0 0 1-.03-1.53c1.16 4.17 2.67 9.1 8.46 14.33Z" fill="#a7b4ce"></path>
        <path d="M126.74 68.83c-3.61-6.81-9.98-15.8-15.12-19.59-.34-.25-.7-.46-1.04-.71-.02-.01-.71-.67-1.73-1.58 2.68.2 5.33.76 7.37 2.26 3.08 2.27 3.69 6.28 3.98 7.32-.16-4.21-2.33-6.83-4.95-8.77-1.17-.87-2.14-1.5-2.94-1.96 1.52.03 2.99.91 4.68 2.16.08.06.15.12.23.19-.6-.73-1.37-1.49-2.43-2.28-1.29-.95-3.53-2.1-5.66-2.84 1.57-.02 3.04.34 4.4.89-1.42-.82-2.75-1.37-4-1.72.93-.05 1.92.07 2.8.22-1.91-.8-5.02-1.59-8.49-1.81 2.37-.43 5.23-.64 7.96-.49.11.08.23.15.34.23 9.88 7.29 10.87 18.67 14.6 28.48Z" fill="#7c829c"></path>
        <path d="M100.45 40.59c-1.86-1.07-3.51-1.76-5.07-2.19 5.27-1.84 10.79-2.26 16.41 1.71-2.73-.15-5.59.07-7.96.49 3.47.22 6.58 1.02 8.49 1.81-.88-.16-1.86-.27-2.8-.22 1.24.35 2.58.9 4 1.72-1.36-.55-2.83-.91-4.4-.89 2.12.74 4.36 1.89 5.66 2.84 1.07.79 1.83 1.55 2.43 2.28-.07-.06-.15-.13-.23-.19-1.7-1.25-3.17-2.13-4.68-2.16.8.47 1.76 1.1 2.94 1.96 2.62 1.94 4.8 4.56 4.95 8.77-.29-1.04-.9-5.05-3.98-7.32-2.03-1.5-4.69-2.06-7.37-2.26-1.31-1.17-3.15-2.77-4.76-3.96-.52-.38-1.01-.73-1.5-1.06-.74-.5-1.45-.95-2.14-1.34Z" fill="#686e85"></path>
        <path d="M115.47 27.71c-4.21-.22-8.06 1.54-10.25 2.8 3.83-.38 8.33-.25 10.03-.13-11.06.36-10.58 4.59-15.52 3.35-.04 0-.08-.02-.12-.03.4.26.87.48 1.42.62 2.58.65 5.98.73 9.31-.16-3.69 1.96-6.86 2.27-9.83 1.53-.94-.24-1.86-.54-2.72-.87 1.05.6 2.4 1.21 4.49 1.74.31.08 1.77.42 2.86.51-2.08.24-4.85.28-7.82-.47-1.72-.43-3.4-.99-5.11-1.45 1.71.97 4.36 2.33 6.81 2.95 1.34.34 2.91.45 4.53.41-2.12.56-4.14.71-5.99.25-1.54-.39-12.01-3.77-15.21-6.74 5.65-.16 15.07-3.38 24.77-5.91 1.11 0 2.18.09 3.07.32.83.21 1.63.55 2.46.76.03 0 1.29.21 2.81.53Z" fill="#c3c4d9"></path>
        <path d="M126.67 24.99c-1.96 1.2-4.1 2.68-6.33 4.22-.74-.07-1.56-.02-2.35.11 1.33-1.1 4.34-2.67 5.62-3.06-1.07.19-3.65.75-6.49 1.96 2.07-1.45 5.14-3.25 7.45-3.77-2.49-.47-3.99-.24-4.98.19.66-.48 1.39-.88 2.16-1.21.78-.11 1.54-.2 2.27-.29 1.96-.08 3.83-.02 5.57.23-.91.44-1.89 1-2.91 1.62Z" fill="#888999"></path>
        <path d="M92.09 24.33c.07 0 .14 0 .21.02.11.03.95-.52 1.02-.5 0 0 3.6-1.99 3.62-1.99 0 0 .15-.03.38-.08-1.79 1.11-2.51 2.05-3.06 2.87 2.36.19 5.95-2.97 9.02-2.88-1.61.5-3.46 2.41-5.07 3.89 2.3-.62 5.17-.68 7.89-.92-3.76 1.36-8.45 2.42-10.61 4.6-5.2 1.44-9.82 2.59-13.14 2.68a4.54 4.54 0 0 1-.64-.72c2.39-2.61 8.08-7.88 15.21-11.4a53.694 53.694 0 0 0-4.84 4.43Z" fill="#757686"></path>
        <path d="M115.81 17.06c-.38.07-.83.19-1.32.35-2.15.15-5.36.39-7.82 1.02 1.35-.86 3.04-1.57 4.53-2.02 1.5.05 3.01.25 4.51.63.03 0 .07.02.1.03Z" fill="#a6a8c3"></path>
        <path d="M116.48 17.25c.41.12.79.23 1.16.36-1.85.11-3.95.61-6.72 1.66.51-.64 2.15-1.4 3.57-1.86.49-.16.94-.28 1.32-.35.23.06.46.12.68.18Z" fill="#a6a8c3"></path>
        <path d="M114.49 17.41c-1.42.46-3.06 1.22-3.57 1.86 2.78-1.06 4.87-1.55 6.72-1.66.06.02.12.05.19.07-1.53.98-2.79 2.05-3.59 2.84 1.32-1.16 2.75-1.79 4.84-1.26.18.05.35.08.51.12.23.06.6.18 1.01.32-.47.08-1.01.21-1.51.35-.1.01-.22.05-.34.11-.26.12-.54.33-.8.55 1.05-.39 2.48-.39 3.72-.08.14.03.27.08.41.11-.8.17-1.68.45-2.3.94.58-.25 1.31-.42 2.19-.2.32.08.98.23 1.56.26-1.07.82-1.93 1.33-2.62 1.64-8.18.88-17.48 3.77-25.41 5.97 2.16-2.18 6.85-3.24 10.61-4.6-2.72.24-5.59.29-7.89.92 1.62-1.48 3.46-3.39 5.07-3.89-3.07-.09-6.66 3.07-9.02 2.88.55-.82 1.26-1.76 3.06-2.87-.23.05-.38.08-.38.08-.01 0-3.62 1.99-3.62 1.99-.07-.02-.91.53-1.02.5-.07-.02-.14-.02-.21-.02 1.18-1.22 2.82-2.8 4.84-4.43 4.36-2.16 9.26-3.65 14.27-3.48-1.49.45-3.18 1.16-4.53 2.02 2.46-.63 5.67-.87 7.82-1.02Z" fill="#848a9a"></path>
        <path d="M129.57 23.37c-2.64-.38-5.57-.33-8.66 0 .7-.31 1.55-.83 2.62-1.64-.57-.03-1.24-.18-1.56-.26-.89-.22-1.62-.05-2.19.2.62-.49 1.5-.77 2.3-.94-.14-.04-.27-.08-.41-.11-1.24-.31-2.67-.31-3.72.08.26-.22.54-.43.8-.55.11-.04.23-.07.34-.11.5-.15 1.04-.27 1.51-.35-.41-.14-.78-.26-1.01-.32-.17-.04-.33-.08-.51-.12-2.1-.53-3.52.1-4.84 1.26.8-.79 2.06-1.86 3.59-2.84 4.94 1.72 6.37 4.15 11.75 5.69Z" fill="#a6a8c3"></path>
        <path d="M121.74 23.42c.13-.06.26-.12.4-.17.63-.05 1.26-.09 1.88-.12-.73.09-1.49.18-2.27.29Z" fill="#c3c4d9"></path>
        <path d="M108.31 26.16c-.39-.03-.78-.04-1.18-.05 5.09-1.33 10.26-2.46 15-2.86-.13.05-.26.11-.4.17-4.55.62-9.74 1.56-13.42 2.73Z" fill="#c3c4d9"></path>
        <path d="M119.58 24.63c.99-.43 2.49-.66 4.98-.19-2.31.52-5.38 2.32-7.45 3.77 2.84-1.22 5.43-1.77 6.49-1.96-1.27.39-4.29 1.96-5.62 3.06.79-.13 1.61-.19 2.35-.11-5.43 3.75-11.42 7.88-16.78 9.3-1.63.03-3.2-.08-4.53-.41-2.45-.62-5.1-1.97-6.81-2.95 1.71.46 3.4 1.01 5.11 1.45 2.97.75 5.74.72 7.82.47-1.1-.09-2.55-.43-2.86-.51-2.1-.53-3.45-1.13-4.49-1.74.85.33 1.77.63 2.72.87 2.97.75 6.14.44 9.83-1.53-3.34.89-6.73.81-9.31.16a4.73 4.73 0 0 1-1.42-.62c.04 0 .08.02.12.03 4.85 1.22 4.48-2.83 14.92-3.32.2 0 .39-.02.6-.03-.15-.01-.34-.02-.54-.03-1.98-.11-6.01-.19-9.49.16 2.19-1.26 6.04-3.02 10.25-2.8-1.52-.32-2.78-.52-2.81-.53-.83-.21-1.63-.55-2.46-.76-.56-.14-1.21-.22-1.88-.27 3.69-1.17 8.87-2.12 13.42-2.73-.77.33-1.5.73-2.16 1.21Z" fill="#8d93ad"></path>
        <path d="M81.81 41.95c-3.06-2.94-7.19-5.74-11.85-5.72h-.5c-.75 0-1.58-.14-1.63-.14-.46 0-.88.17-1.36.17-.04 0-.09 0-.14.01 3.52 1.22 5.54-.68 13.15 4.91.14.14.26.27.37.39-2.15-1.48-4.38-2.18-6.57-2.17-.7 0-1.39.04-2.09.09 5.98 1.86 6.59 5.65 9.92 8.02-2.45-.67-3.87-1.95-5.04-2.92 2.88 3.53 4.7 8.37 7.72 10.74-4.52-2.51-7.02-8.64-10.08-9.44 4.01 4.88 9.01 14.15 14.11 18.59-8.06-5.75-14.45-15.86-19.9-24.05-.87-1.31-1.72-2.56-2.54-3.75-.76-1.08-1.49-2.11-2.22-3.04.52-.78 1.21-1.3 2.1-1.3 7.07-.04 12.84 4.92 16.56 9.59Z" fill="#7d8a9a"></path>
        <path d="M87.4 57.89c.87 1.03 1.76 2.01 2.57 2.84-.65-1.32-1.39-3.16-2.04-5.58 2.11 4.37 6.01 10.33 9.78 13.65-1.25-.2-2.47-.53-3.65-.96-3.25-2.07-4.76-4.73-5.5-6.35 1.08 1.3 2.26 2.55 3.37 3.33-1.62-1.82-3.29-4.46-4.53-6.94Z" fill="#a9b6d0"></path>
        <path d="M69.47 36.24h.5c4.66-.02 8.78 2.77 11.85 5.72 2.91 3.66 4.56 7.15 4.56 7.89 0 .18-.06.31-.05.64 0 .91.61 2.61 1.61 4.68.65 2.42 1.39 4.25 2.04 5.58-.81-.84-1.7-1.82-2.57-2.84 1.24 2.48 2.91 5.12 4.53 6.94-1.11-.78-2.29-2.03-3.37-3.33.74 1.61 2.26 4.28 5.5 6.35-.87-.32-1.73-.69-2.57-1.11-1.27-.64-2.49-1.39-3.68-2.23-5.09-4.44-10.09-13.71-14.11-18.59 3.06.8 5.56 6.93 10.08 9.44-3.02-2.37-4.84-7.22-7.72-10.74 1.16.97 2.59 2.24 5.04 2.92-3.32-2.37-3.94-6.17-9.92-8.02.7-.05 1.39-.08 2.09-.09 2.19-.01 4.42.68 6.57 2.17-.11-.12-.23-.25-.37-.39-7.6-5.58-9.63-3.69-13.15-4.91.05 0 .1-.01.14-.01.48 0 .9-.17 1.36-.17.05 0 .88.14 1.63.14Z" fill="#8996b0"></path>
        <path d="M63.07 33.82c.03-.05.06-.11.09-.16 8.19 10.61 18.37 31.89 33.84 35-11.94-.59-28.11-23.59-33.93-34.84Z" fill="#6d7383"></path>
        <path d="M69.96 45.13c-.12.39-.23.88-.29 1.41-.14-.72-.22-1.45-.23-2.16.17.25.34.5.52.76Z" fill="#6d7383"></path>
        <path d="M64.72 36.85c.31.54.64 1.1.98 1.67.12.19.23.39.35.59.06.1.12.2.19.3.11.17.21.34.32.52.35.57.72 1.15 1.1 1.74-.14.2-.28.4-.4.61-.88.75-2.35 2.9-2.33 5.89 0 .5.04 1 .11 1.49-.37-1.04-.7-2.42-.71-4.12 0-.52.11-1.99.54-3.58-.35.6-.64 1.27-.85 1.97.09-1.27.09-2.68.97-4.31-1.28.47-1.98 1.63-2.45 3.24.11-.8.3-2.18.68-3.45-.49.4-.99.98-1.34 1.77-.04-.53-.06-1.06-.07-1.59 0-1.86.35-4.26 1.27-5.77.48.93 1.04 1.95 1.65 3.02Z" fill="#6d7383"></path>
        <path d="M62.52 42.87c.47-1.6 1.17-2.77 2.45-3.24-.88 1.62-.88 3.03-.97 4.31.21-.7.51-1.38.85-1.97-.43 1.59-.54 3.06-.54 3.58 0 1.7.34 3.08.71 4.12-.06-.49-.1-.99-.11-1.49-.02-2.99 1.45-5.15 2.33-5.89.12-.21.26-.41.4-.61.57.89 1.17 1.79 1.79 2.71 0 .71.09 1.44.23 2.16.07-.53.17-1.02.29-1.41.28.41.57.81.85 1.22 4.51 6.39 10.06 13.01 15.58 17.37.84.66 1.68 1.28 2.52 1.82 1.73 1.14 3.44 2.01 5.1 2.54-1.29-.15-2.59-.43-3.81-.94.54.57 1.21 1.16 2.06 1.73-2.38-.68-3.87-1.55-4.85-2.43.34.55.74 1.11 1.18 1.64-3.01-1.28-6.28-3.5-7.16-6.96.34 2.15 2.05 4.45 3.63 6.09-2.27-1.22-3.88-2.76-4.93-4.12.69 1.45 1.78 2.89 2.89 4.05-2.31-1.18-3.71-1.9-4.58-2.43.42.65.97 1.33 1.72 2.04-6.98-2.58-13.24-6.71-13.26-11.19 0 0-3.4-5.1-4.64-11.58-.17-.91-.31-1.84-.38-2.79.35-.79.85-1.37 1.34-1.77-.38 1.27-.57 2.65-.68 3.45Z" fill="#7f8c9c"></path>
        <path d="M80.11 63.08c1.06 1.37 2.66 2.9 4.93 4.12-1.58-1.64-3.28-3.93-3.63-6.09.87 3.46 4.15 5.68 7.16 6.96-.43-.53-.84-1.09-1.18-1.64.98.88 2.48 1.75 4.85 2.43-.84-.56-1.52-1.16-2.06-1.73 1.22.51 2.53.79 3.81.94 1.02.33 2.02.53 2.99.58.24.05.47.11.71.14.04.04.09.08.13.12-1.41.39-2.87.56-4.36.57h-.19c-1.13 0-2.38-.11-3.71-.3-.97-.14-1.98-.32-3.01-.55-.9-.2-1.82-.43-2.75-.7-1.23-.35-2.46-.75-3.68-1.2-.75-.72-1.3-1.4-1.72-2.04.87.53 2.27 1.25 4.58 2.43-1.11-1.17-2.2-2.6-2.89-4.05Z" fill="#a9b6d0"></path>
        <path d="M68.12 1.51c-.46.19-.98.44-1.52.72-4.7.75-24.77 13.95-31.79 16.38-.27-.16-.54-.33-.81-.51 3.08-3.97 9.82-9.58 17.53-13.49-.79.6-1.49 1.2-2.09 1.74 2.36-1.54 5.28-2.47 6.76-2.65-1.53.57-2.64 1.68-3.21 2.74 1.19-1.38 2.93-2.11 4.59-2.59-.43.43-.64.96-.86 1.45 1.74-1.22 3.95-2.8 4.09-2.82.46-.08.92-.17 1.37-.28-.33.35-.6.77-.8 1.11 3.05-1.51 5.41-1.77 6.75-1.8Z" fill="#8996b0"></path>
        <path d="M77.94 1.68c-.12.06-.25.13-.37.2-5.74-.98-10.02.47-10.02.47-.1-.03-.21-.1-.31-.13-.16-.04-.38-.03-.64 0 .54-.28 1.06-.53 1.52-.72-1.34.03-3.71.29-6.75 1.8.2-.34.48-.76.8-1.11-.45.11-.9.2-1.37.28-.13.02-2.35 1.6-4.09 2.82.22-.49.43-1.02.86-1.45-1.66.48-3.4 1.21-4.59 2.59.57-1.07 1.68-2.18 3.21-2.74-1.48.18-4.4 1.11-6.76 2.65.6-.54 1.3-1.14 2.09-1.74C58.43 1.09 66.13-1.07 72.69.52c.69.17 1.38.34 2.08.51 1.04.25 2.09.48 3.17.64Z" fill="#a9b6d0"></path>
        <path d="M77.57 1.88c-3.85 2.15-8.5 6.84-13.94 11.04-3.19 2.47-6.66 4.76-10.4 6.28-.15.06-.31.12-.46.18-2.01.51-4.23.75-6.36.24-.92-.22-1.33-.49-1.78-.84 5.29 1.06 8.22-2 11.28-2.55-3.73-.67-5.34 1.9-8.16 1.22-.35-.09-.7-.2-1.04-.33 5.69.84 7.86-3.33 10.6-3.61-.34-.18-.57-.31-.6-.31-1.13-.27-3.22.99-5.26 1.62 2.58-1.31 6.1-3.82 8.9-3.75-.28-.12-.55-.22-.81-.28-1.06-.26-2.23.04-3.46.48 1.62-1.48 3.14-3.49 5.69-3.97-.92-.08-1.89.03-2.78.7-.76.56-1.44.99-2.07 1.32 1.51-1.34 2.41-3.28 4.01-4.7 1.16-.6 2.22-1.12 3.14-1.52.14-.06.28-.12.41-.18 1.31-.55 2.28-.82 2.77-.7.11.03.21.1.31.13 0 0 4.28-1.45 10.02-.47Z" fill="#7d879d"></path>
        <path d="M56.91 9.32c.63-.33 1.31-.76 2.07-1.32.89-.66 1.86-.78 2.78-.7-2.55.47-4.07 2.49-5.69 3.97 1.23-.44 2.39-.74 3.46-.48.26.06.53.17.81.28-2.8-.07-6.32 2.44-8.9 3.75 2.04-.63 4.14-1.89 5.26-1.62.03 0 .25.13.6.31-2.74.29-4.91 4.45-10.6 3.61.34.14.69.25 1.04.33 2.83.68 4.43-1.89 8.16-1.22-3.06.55-5.98 3.61-11.28 2.55.45.35.86.62 1.78.84 2.13.52 4.35.27 6.36-.24-4.14 1.6-8.62 2.23-13.43 1.07-1.57-.38-3.1-1-4.52-1.84 5.33-1.84 18.17-9.9 26.11-14-1.59 1.42-2.5 3.36-4.01 4.7Z" fill="#6d7383"></path>
    </g>
</svg>
