<?xml version="1.0" standalone="no"?>
<!DOCTYPE svg PUBLIC "-//W3C//DTD SVG 20010904//EN"
 "http://www.w3.org/TR/2001/REC-SVG-20010904/DTD/svg10.dtd">
<svg version="1.0" xmlns="http://www.w3.org/2000/svg"
 width="1280.000000pt" height="525.000000pt" viewBox="0 0 1280.000000 525.000000"
 preserveAspectRatio="xMidYMid meet">

<g transform="translate(0.000000,525.000000) scale(0.100000,-0.100000)"
fill="#701e8c" stroke="none">
<path d="M79 4403 c-13 -16 -12 -17 4 -4 9 7 17 15 17 17 0 8 -8 3 -21 -13z"/>
<path d="M597 3740 c-12 -31 -13 -48 -6 -70 7 -20 7 -35 0 -47 -6 -10 -11 -13
-11 -7 0 6 -6 11 -14 11 -8 0 -24 -32 -41 -81 -15 -45 -29 -88 -33 -96 -8 -21
-9 -60 -2 -60 4 0 5 -13 2 -29 -2 -16 1 -37 6 -48 9 -15 11 -10 9 22 -1 22 0
67 2 100 2 47 5 55 11 35 4 -14 9 -41 10 -60 1 -34 2 -34 11 -10 6 14 14 59
18 100 5 45 9 61 11 40 1 -19 6 -46 10 -60 6 -19 8 -8 10 40 l1 65 19 -45 20
-45 -4 138 c-2 76 -6 140 -8 143 -3 2 -12 -14 -21 -36z m14 -56 c-5 -16 -10
-21 -10 -12 -1 18 10 51 15 45 2 -1 -1 -16 -5 -33z"/>
<path d="M316 3719 c22 -24 62 -75 89 -114 64 -93 69 -97 60 -55 -10 47 -34
92 -45 85 -6 -3 -7 0 -5 7 3 8 -9 27 -26 43 -18 17 -29 23 -25 15 4 -8 -1 -5
-11 6 -10 12 -31 30 -48 40 -27 16 -27 14 11 -27z m79 -49 c3 -5 2 -10 -4 -10
-5 0 -13 5 -16 10 -3 6 -2 10 4 10 5 0 13 -4 16 -10z"/>
<path d="M635 3527 c-9 -174 -11 -201 -24 -317 -11 -91 -7 -125 19 -199 22
-61 51 -231 40 -231 -4 0 -13 11 -20 25 -8 15 -34 41 -58 58 -41 31 -44 36
-46 88 -1 30 -7 63 -13 73 -8 14 -9 6 -5 -34 3 -34 1 -51 -5 -47 -6 4 -8 18
-5 32 3 18 0 25 -9 23 -9 -2 -13 9 -14 39 0 48 -29 85 -85 110 -19 8 -47 21
-62 29 -16 9 -28 12 -28 7 0 -4 -5 -1 -10 7 -8 11 -9 8 -6 -13 5 -29 25 -61
33 -53 3 2 -1 15 -7 28 -7 15 -1 11 19 -12 16 -19 28 -37 26 -41 -2 -3 9 -21
25 -40 27 -32 28 -32 24 -9 -5 24 -5 24 10 5 9 -11 14 -25 12 -31 -2 -6 17
-36 42 -65 l47 -54 -40 34 c-22 19 -48 47 -57 62 -9 15 -20 28 -26 30 -5 2
-23 23 -40 47 l-31 43 -20 -20 c-19 -19 -19 -22 -5 -65 18 -53 79 -108 111
-100 11 3 25 -1 32 -10 10 -12 9 -14 -11 -10 -21 4 -21 4 -3 -5 12 -5 25 -5
33 1 8 8 12 6 12 -5 0 -11 7 -14 23 -11 33 5 129 -82 151 -137 9 -23 15 -43
13 -46 -3 -2 -35 29 -72 69 l-68 73 32 -56 c36 -64 91 -209 91 -240 0 -11 3
-18 8 -16 4 3 7 -9 8 -26 0 -18 5 -74 9 -126 l8 -94 23 28 c35 44 46 101 39
191 -3 43 -9 81 -13 84 -22 16 -42 88 -52 181 -6 58 -21 148 -33 201 l-23 95
28 54 c38 74 74 191 82 268 5 53 4 62 -9 57 -12 -4 -15 3 -15 30 0 19 -3 33
-8 30 -4 -2 -6 14 -4 37 2 32 1 38 -7 27 -8 -12 -11 -6 -11 25 0 30 -3 36 -10
25 -8 -12 -10 -12 -10 5 0 11 -7 28 -14 37 -11 15 -14 -7 -21 -145z m25 -152
c4 -25 3 -48 -2 -51 -4 -3 -8 10 -8 28 0 18 -3 44 -7 58 -3 14 -2 22 2 18 5
-4 11 -28 15 -53z m37 -17 c-3 -8 -6 -5 -6 6 -1 11 2 17 5 13 3 -3 4 -12 1
-19z m-60 -20 c-3 -8 -6 -5 -6 6 -1 11 2 17 5 13 3 -3 4 -12 1 -19z m40 -70
c-3 -8 -6 -5 -6 6 -1 11 2 17 5 13 3 -3 4 -12 1 -19z m26 2 c-3 -12 -8 -19
-11 -16 -5 6 5 36 12 36 2 0 2 -9 -1 -20z m-260 -183 c9 8 37 -29 30 -40 -3
-5 -15 1 -27 12 -12 12 -25 18 -29 15 -11 -11 -36 16 -30 32 5 13 9 12 28 -6
12 -11 25 -17 28 -13z"/>
<path d="M914 3088 c-34 -40 -79 -100 -100 -132 -34 -53 -39 -66 -38 -115 1
-31 0 -50 -3 -43 -3 6 -9 12 -15 12 -7 0 -8 -21 -4 -62 4 -35 7 -67 8 -73 0
-5 -2 -23 -6 -40 -6 -27 -5 -28 4 -6 6 13 21 32 35 43 48 38 149 198 125 198
-10 0 -9 4 23 68 9 17 12 32 7 32 -6 0 -10 -5 -10 -12 0 -6 -2 -9 -5 -6 -3 3
3 25 14 49 16 38 39 159 29 159 -2 0 -31 -33 -64 -72z m-4 -123 c0 -8 -4 -15
-10 -15 -5 0 -7 7 -4 15 4 8 8 15 10 15 2 0 4 -7 4 -15z m-97 -90 c-3 -9 -8
-14 -10 -11 -3 3 -2 9 2 15 9 16 15 13 8 -4z m67 -25 c-6 -11 -13 -20 -16 -20
-2 0 0 9 6 20 6 11 13 20 16 20 2 0 0 -9 -6 -20z m-83 -22 c-3 -8 -6 -5 -6 6
-1 11 2 17 5 13 3 -3 4 -12 1 -19z"/>
<path d="M507 2843 c-8 -13 -12 -101 -5 -109 10 -9 27 89 19 104 -5 8 -11 10
-14 5z"/>
<path d="M101 2573 c-1 -7 -8 -13 -17 -13 -11 0 -15 -6 -11 -20 3 -10 0 -21
-6 -23 -7 -2 -6 -23 5 -67 12 -51 13 -60 2 -45 -13 18 -14 18 -14 -6 0 -19 -2
-21 -10 -9 -8 12 -10 11 -10 -7 0 -13 -4 -23 -10 -23 -16 0 -12 -165 4 -205 8
-19 19 -35 24 -35 5 0 14 -11 20 -25 19 -42 95 -117 137 -136 22 -10 54 -19
71 -19 31 0 31 0 38 -66 8 -79 -7 -171 -39 -233 -21 -42 -207 -238 -262 -276
-13 -9 -23 -23 -23 -31 0 -23 167 124 288 252 l104 111 67 7 c68 7 225 42 250
56 8 4 -7 6 -35 3 -27 -3 -46 -3 -43 1 4 4 35 9 70 12 46 4 81 14 129 40 64
34 174 122 135 109 -53 -19 -55 -16 -14 23 38 36 41 40 19 35 -20 -4 -17 0 15
22 61 42 65 48 25 40 l-35 -8 33 28 c38 31 41 45 10 39 -13 -2 -17 -2 -10 2 7
3 17 14 22 25 9 15 8 18 -7 12 -17 -6 -17 -5 0 14 51 58 -15 29 -105 -47 -40
-34 -123 -96 -185 -137 -62 -42 -109 -81 -106 -86 4 -6 0 -8 -10 -4 -10 3 -17
2 -17 -3 0 -6 -6 -10 -12 -11 -18 0 -135 -84 -205 -146 l-59 -52 13 62 c10 47
11 81 3 142 -8 64 -7 90 5 129 8 28 14 82 14 125 -1 56 -3 67 -8 41 -6 -28 -8
-19 -12 45 -4 55 -13 94 -28 123 -24 47 -146 178 -136 147 7 -20 6 -20 -9 -1
-9 11 -16 24 -16 29 0 4 -4 6 -9 3 -5 -3 -16 11 -24 32 -9 20 -16 31 -16 25z
m12 -103 c3 -11 1 -23 -4 -26 -5 -3 -9 6 -9 20 0 31 6 34 13 6z m10 -60 c-3
-11 -7 -20 -9 -20 -2 0 -4 9 -4 20 0 11 4 20 9 20 5 0 7 -9 4 -20z m70 -62
c-2 -5 0 -8 5 -8 4 0 16 -17 25 -37 12 -26 13 -32 3 -20 -11 14 -15 15 -20 5
-3 -7 -3 -2 0 11 4 14 2 21 -4 17 -10 -6 -22 26 -21 59 l0 20 8 -20 c5 -11 7
-23 4 -27z m-66 10 c-3 -8 -6 -5 -6 6 -1 11 2 17 5 13 3 -3 4 -12 1 -19z m43
-33 c0 -5 -5 -3 -10 5 -5 8 -10 20 -10 25 0 6 5 3 10 -5 5 -8 10 -19 10 -25z
m92 -70 c-3 -29 -7 -35 -12 -21 -8 23 0 80 10 69 4 -4 5 -26 2 -48z m-47 -6
c-5 -15 -4 -19 4 -15 6 4 11 0 11 -8 0 -9 -4 -16 -9 -16 -13 0 -21 27 -15 45
9 23 16 18 9 -6z m112 -36 c-3 -10 -5 -2 -5 17 0 19 2 27 5 18 2 -10 2 -26 0
-35z m-27 -92 c-7 -11 -9 -3 -9 29 1 42 1 43 9 16 6 -17 5 -36 0 -45z m17 47
c-3 -8 -6 -5 -6 6 -1 11 2 17 5 13 3 -3 4 -12 1 -19z m23 -53 c0 -8 -4 -15
-10 -15 -5 0 -10 7 -10 15 0 8 5 15 10 15 6 0 10 -7 10 -15z m-10 -35 c0 -5
-5 -10 -11 -10 -5 0 -7 5 -4 10 3 6 8 10 11 10 2 0 4 -4 4 -10z m-166 -59 c-2
-3 -12 3 -22 13 -16 17 -16 18 5 5 12 -7 20 -15 17 -18z m41 -11 c3 -6 -1 -7
-9 -4 -18 7 -21 14 -7 14 6 0 13 -4 16 -10z m22 -29 c0 -11 -7 -17 -14 -14 -9
4 -9 8 0 19 16 17 16 17 14 -5z m449 -76 c-11 -8 -25 -15 -30 -15 -6 1 0 7 14
15 32 19 40 18 16 0z m129 -15 c-3 -5 -14 -10 -23 -9 -14 0 -13 2 3 9 27 11
27 11 20 0z m-62 -17 c-7 -2 -21 -2 -30 0 -10 3 -4 5 12 5 17 0 24 -2 18 -5z
m-3 -67 c0 -2 -9 -6 -20 -9 -11 -3 -18 -1 -14 4 5 9 34 13 34 5z m-55 -16 c3
-6 -1 -7 -9 -4 -18 7 -21 14 -7 14 6 0 13 -4 16 -10z"/>
<path d="M968 2261 c-48 -14 -90 -30 -95 -34 -13 -14 51 -3 66 11 7 7 16 10
20 7 3 -4 -3 -11 -13 -17 -15 -8 -16 -12 -5 -20 10 -6 7 -7 -10 -3 -16 5 -21
4 -17 -4 4 -6 2 -11 -4 -11 -7 0 -10 7 -7 14 4 10 1 13 -9 9 -8 -3 -20 0 -28
6 -10 8 -35 5 -102 -15 -49 -14 -97 -29 -106 -31 -17 -5 -17 -3 -3 37 18 50
18 50 6 50 -5 0 -17 -23 -26 -50 -15 -44 -23 -54 -66 -75 -52 -27 -93 -78
-104 -130 -6 -25 -2 -21 23 20 16 28 40 59 52 70 l23 20 -13 -25 -13 -25 29
26 c35 31 80 59 94 59 6 0 -5 -14 -25 -31 -47 -42 -91 -123 -47 -88 9 8 39 25
66 39 26 14 68 42 92 63 59 52 56 34 -8 -37 l-52 -58 45 22 c24 12 61 38 82
58 43 42 44 40 16 -23 -11 -25 -19 -48 -17 -50 2 -2 38 24 81 57 46 37 73 64
66 68 -7 5 -5 9 5 13 9 4 18 5 20 4 7 -3 55 44 78 76 24 33 21 33 -94 -2z m35
-42 c-8 -8 -13 -7 -18 2 -5 8 -4 10 3 5 7 -4 12 -2 12 5 0 7 3 9 7 6 4 -4 2
-12 -4 -18z m-113 -29 c0 -5 -8 -10 -17 -10 -15 0 -16 2 -3 10 19 12 20 12 20
0z"/>
<path d="M480 1600 c-140 -19 -260 -90 -316 -186 -20 -34 -41 -52 -95 -80 -38
-20 -69 -40 -69 -45 0 -13 5 -12 71 22 l61 30 127 -12 c132 -13 203 -8 321 24
39 11 47 15 28 16 -16 1 -28 6 -28 12 0 5 4 8 9 5 13 -9 71 5 65 15 -3 5 15 9
41 9 30 0 47 5 51 14 3 8 19 17 36 20 17 3 29 8 27 10 -2 3 -24 0 -49 -5 -34
-7 -56 -6 -90 5 -34 12 -36 14 -10 8 65 -13 121 -4 194 32 39 18 86 47 105 63
l35 30 -100 6 c-201 13 -351 16 -414 7z m-43 -46 c-3 -3 -12 -4 -19 -1 -8 3
-5 6 6 6 11 1 17 -2 13 -5z m-40 -10 c-3 -3 -12 -4 -19 -1 -8 3 -5 6 6 6 11 1
17 -2 13 -5z m111 -11 c-10 -2 -26 -2 -35 0 -10 3 -2 5 17 5 19 0 27 -2 18 -5z
m-188 -17 c0 -2 -8 -10 -17 -17 -16 -13 -17 -12 -4 4 13 16 21 21 21 13z m247
-2 c-3 -3 -12 -4 -19 -1 -8 3 -5 6 6 6 11 1 17 -2 13 -5z m30 -20 c-3 -3 -12
-4 -19 -1 -8 3 -5 6 6 6 11 1 17 -2 13 -5z m-180 -90 c-3 -3 -12 -4 -19 -1 -8
3 -5 6 6 6 11 1 17 -2 13 -5z m-80 -10 c-3 -3 -12 -4 -19 -1 -8 3 -5 6 6 6 11
1 17 -2 13 -5z m-70 -10 c-3 -3 -12 -4 -19 -1 -8 3 -5 6 6 6 11 1 17 -2 13 -5z"/>
<path d="M148 334 c-38 -20 -36 -28 2 -9 17 9 30 18 30 20 0 7 -1 6 -32 -11z"/>
</g>
</svg>
