<svg preserveAspectRatio="xMidYMid meet" data-bbox="51.2 51 322.6 322.6" viewBox="51.2 51 322.6 322.6" xmlns="http://www.w3.org/2000/svg" data-type="color" role="presentation" aria-hidden="true" aria-label=""><defs><style>#comp-lp1rsubf6 svg [data-color="1"] {fill: #737373;}</style></defs>
    <g>
        <path d="M212.5 372.6c-88.4 0-160.3-71.9-160.3-160.3S124.1 52 212.5 52s160.3 72 160.3 160.4c0 88.3-71.9 160.2-160.3 160.2zm0-319.5c-87.8 0-159.3 71.5-159.3 159.3s71.5 159.3 159.3 159.3 159.3-71.5 159.3-159.3S300.3 53.1 212.5 53.1z" fill="737373" data-color="1"></path>
        <path d="M212.5 373.6c-88.9 0-161.3-72.4-161.3-161.3S123.6 51 212.5 51s161.3 72.4 161.3 161.3c0 89-72.4 161.3-161.3 161.3zm0-319.5c-87.3 0-158.3 71-158.3 158.3 0 87.3 71 158.3 158.3 158.3s158.3-71 158.3-158.3c0-87.3-71-158.3-158.3-158.3z" fill="#737373" data-color="1"></path>
        <path d="m211.5 217-92.1 31.4v93.4c20.7 14.7 45.1 24.6 71.5 28V321c0-11.9 9.8-21.6 22-21.6 12.1 0 22 9.7 22 21.6v48.5c25.7-3.7 49.4-13.6 69.7-28v-93.1L211.5 217zm-49.7 82.3h-20.9v-16.4c0-5.8 4.7-10.5 10.5-10.5s10.5 4.7 10.5 10.5v16.4zm100.1 0v-16.4c0-5.8 4.7-10.5 10.5-10.5s10.5 4.7 10.5 10.5v16.4h-21z" fill="737373" data-color="1"></path>
        <path d="m211.8 127.9-44.5 23.9.4 76.5 43.8-13.1 44.5 12.4.1-75.8-44.3-23.9zm10.5 60.4h-20.9V172c0-5.8 4.7-10.5 10.5-10.5s10.5 4.7 10.5 10.5v16.3z" fill="#737373s" data-color="1"></path>
        <path fill="#737373" clip-rule="evenodd" fill-rule="evenodd" d="M199.1 92.9h9.2V80.3h6.7v12.6h9.2v6.8H215l-.1 24.4-3.3-1.8-3.4 1.8.1-24.4h-9.2v-6.8z" data-color="1"></path>
    </g>
</svg>