<svg fill="black" preserveAspectRatio="xMidYMid meet" data-bbox="68.969 276.137 828.902 31.035" height="820" viewBox="68.969 276.137 828.902 31.035" width="1280" xmlns="http://www.w3.org/2000/svg" data-type="color" role="presentation" aria-hidden="true" aria-label=""><defs></defs>
    <g>
        <defs>
            <clipPath id="ed99382b-6d76-475c-a6c4-244cd30cd57b_comp-lp1rsuba3">
                <path d="M68.969 276.137H897.87v31.035H68.97Zm0 0"></path>
            </clipPath>
        </defs>
        <g clip-path="url(#ed99382b-6d76-475c-a6c4-244cd30cd57b_comp-lp1rsuba3)">
            <path d="M517.18 291.656c0-.699.562-1.261 1.25-1.261h348.605l7.14-7.23 7.138 7.23h6.332c.558-2.293 2.59-4 5.023-4 2.875 0 5.203 2.355 5.203 5.261 0 2.903-2.328 5.262-5.203 5.262-2.434 0-4.465-1.707-5.023-3.996h-6.332l-7.137 7.226-7.14-7.226H518.43a1.26 1.26 0 0 1-1.25-1.266Zm-67.524 0c0 .7-.558 1.266-1.25 1.266H99.805l-7.14 7.226-7.142-7.226h-6.328c-.562 2.289-2.59 3.996-5.03 3.996-2.868 0-5.196-2.356-5.196-5.262 0-2.906 2.328-5.261 5.195-5.261 2.441 0 4.469 1.707 5.031 4h6.328l7.141-7.23 7.14 7.23h348.602c.692 0 1.25.562 1.25 1.261Zm51.14-5.273c0 1.129 10.755 5.273 11.876 5.273-1.121 0-11.875 4.145-11.875 5.274 0-1.13-4.094-5.274-5.211-5.274 1.117 0 5.21-4.144 5.21-5.273ZM466.04 296.93c0-1.13-10.758-5.274-11.871-5.274 1.113 0 11.871-4.144 11.871-5.273 0 1.129 4.094 5.273 5.215 5.273-1.121 0-5.215 4.145-5.215 5.274Zm8.852-5.278 8.527-9.59 8.523 9.59-8.523 9.59Zm8.527-15.515-10.988 15.515 10.988 15.52 10.988-15.52-10.988-15.515" fill="#737373" data-color="1"></path>
        </g>
    </g>
</svg>