<svg preserveAspectRatio="xMidYMid meet" data-bbox="45.2 52 321.6 322.9" viewBox="45.2 52 321.6 322.9" xmlns="http://www.w3.org/2000/svg" data-type="color" role="presentation" aria-hidden="true" aria-label=""><defs><style>#comp-lp1rsubg13 svg [data-color="1"] {fill: #737373;}</style></defs>
    <g>
        <path d="M261.1 363.1v1.1c2.7-1 5.3-2 7.9-3.1V360c-2.6 1-5.2 2.1-7.9 3.1z" fill="#737373" data-color="1"></path>
        <path d="M260.1 365.6v-3.2l.7-.2c2.6-.9 5.2-2 7.9-3.1l1.4-.6v3.3l-.6.3c-2.6 1.1-5.3 2.2-8 3.2l-1.4.3z" fill="737373" data-color="1"></path>
        <path d="M146.5 361.1v1.1c2 .8 4 1.6 6 2.3v-1.1c-2-.7-4-1.5-6-2.3z" fill="#737373" data-color="1"></path>
        <path d="m153.5 365.9-1.3-.5c-2-.7-4.1-1.5-6.1-2.3l-.6-.3v-3.2l1.4.6c2 .8 4 1.6 6 2.3l.7.2-.1 3.2z" fill="#737373" data-color="1"></path>
        <path d="M79.8 310.7v-1.6c-20.4-26.8-32.6-60.2-32.6-96.4 0-87.8 71.4-159.2 159.2-159.2s159.2 71.4 159.2 159.2c0 34.5-11 66.4-29.7 92.5v1.2c18.9-26.3 30.1-58.5 30.1-93.4 0-88.4-71.6-160-160-160-44 0-83.8 17.8-112.8 46.5-29 29-46.9 69-46.9 113.1-.1 37 12.4 71 33.5 98.1z" fill="737373" data-color="1"></path>
        <path d="m80.8 313.6-1.8-2.3c-22.1-28.5-33.8-62.6-33.8-98.7 0-42.9 16.8-83.4 47.2-113.8C122.7 68.6 163 52 205.8 52c88.8 0 161 72.2 161 161 0 34-10.5 66.5-30.3 94l-1.8 2.5v-4.6l.2-.3c19.3-27 29.6-58.8 29.6-92 0-87.2-70.9-158.2-158.2-158.2-87.2 0-158.2 70.9-158.2 158.2 0 34.9 11.2 68 32.4 95.8l.2.3.1 4.9z" fill="737373" data-color="1"></path>
        <path d="M206.3 372.8c-18.9 0-37-3.3-53.8-9.3v.4c16.7 5.9 34.6 9.1 53.3 9.1 19.4 0 38-3.5 55.3-9.8-17.1 6.2-35.6 9.6-54.8 9.6z" fill="737373" data-color="1"></path>
        <path d="M261.1 317.8c0-4.6-.3-9.2-.8-13.7-3.2-30-19.9-55.2-39.2-57.9-8.8-1.2-17.6-.6-26.4-.5-2.1 0-4.1.7-6.2 1.5-21.5 7.8-35.8 36.1-35.9 71.3v47c16.8 6.1 34.9 9.4 53.8 9.4 19.2 0 37.7-3.4 54.8-9.7-.1-15.9-.1-31.6-.1-47.4z" fill="737373" data-color="1"></path>
        <path d="M206.3 371.8c-18.9 0-37-3.3-53.8-9.4v1.1c16.8 6 34.9 9.3 53.8 9.3 19.2 0 37.7-3.4 54.8-9.7V362c-17.1 6.4-35.5 9.8-54.8 9.8z" fill="737373" data-color="1"></path>
        <path d="M334.9 269.4c-3.3-30-21.2-55.3-41.4-58-8-1.1-16.1-.8-24.2-.7-15.7.3-28.4 9.9-38.2 28.3-.4.8-.8 1.7-1.2 2.7.3.2.4.4.5.4 21.3 6.3 39.3 35.3 38.7 73.5-.3 15.4-.1 30.9-.1 46.4 26.8-11.5 49.9-30.3 66.7-53.7v-25.1c0-4.7-.3-9.3-.8-13.8z" fill="737373" data-color="1"></path>
        <path d="M269 360c1-.4 2-.8 2.9-1.3-.9.5-1.9.9-2.9 1.3z" fill="#737373" data-color="1"></path>
        <path d="M335.7 306.4v-1.2c-16.8 23.5-39.9 42.2-66.7 53.7v1.1c1-.4 2-.9 2.9-1.3 25.6-11.6 47.6-29.8 63.8-52.3z" fill="737373" data-color="1"></path>
        <path d="M79.8 310.7v.8c17.3 22.1 40.3 39.5 66.7 50.1v-.4C120 350.5 97 332.9 79.8 310.7z" fill="737373" data-color="1"></path>
        <path d="M146.5 363.1v-49.2c0-11 1.2-21.5 4.4-31.4 7-21.9 18.7-35.2 34.7-40.7-.2-.6-.2-.9-.3-1.2-8.2-16.5-19.1-26.8-32.8-29.1-7.3-1.2-14.8-.7-22.2-.8-3.3 0-6.6.1-9.8.9-24.2 6.3-40.6 35.6-40.6 72.2V312c17 22.5 40 40.3 66.6 51.1z" fill="737373" data-color="1"></path>
        <path d="M79.8 309.1v1.6c17.3 22.2 40.2 39.8 66.7 50.5v-1.1c-26.6-10.8-49.6-28.6-66.7-51z" fill="737373" data-color="1"></path>
        <path d="M134.2 205.8c18.5 0 33.5-15 33.4-33.4 0-18.3-15-33.3-33.3-33.4-18.4-.1-33.4 14.9-33.5 33.4 0 18.5 14.9 33.4 33.4 33.4z" fill="737373" data-color="1"></path>
        <path d="M281.3 205.8c18.5 0 33.4-14.9 33.4-33.4s-15-33.5-33.4-33.4c-18.3 0-33.3 15-33.4 33.3-.1 18.4 14.9 33.5 33.4 33.5z" fill="737373" data-color="1"></path>
        <path d="M207.5 227.9c18.5 0 33.4-14.8 33.5-33.3 0-18.4-15-33.4-33.4-33.4s-33.3 14.8-33.3 33.2c-.1 18.6 14.7 33.4 33.2 33.5z" fill="737373" data-color="1"></path>
    </g>
</svg>